<svg width="24" height="24" viewBox="0 0 24 24" fill="none" xmlns="http://www.w3.org/2000/svg">
<path d="M16.8406 16.6031L14.7106 15.8906C13.9217 16.461 12.9729 16.7681 11.9994 16.7681C11.0259 16.7681 10.0771 16.461 9.2882 15.8906L7.15823 16.6031C6.49537 16.8221 5.91869 17.2451 5.51057 17.8115C5.10245 18.3778 4.88377 19.0587 4.88576 19.7568V21.2793C4.88553 21.6019 5.01335 21.9115 5.24114 22.14C5.46894 22.3685 5.7781 22.4973 6.10076 22.498H17.8981C18.2207 22.4973 18.5299 22.3685 18.7577 22.14C18.9855 21.9115 19.1133 21.6019 19.1131 21.2793V19.7568C19.1151 19.0587 18.8964 18.3778 18.4882 17.8114C18.0801 17.2451 17.5034 16.8221 16.8406 16.6031Z" fill="#B72B2B"/>
<path d="M21.266 9.97115C21.1833 9.98092 21.0998 9.96051 21.0309 9.91367C20.962 9.86682 20.9123 9.79668 20.891 9.71615C20.6776 8.87645 20.3442 8.07193 19.901 7.32743C19.8588 7.25524 19.8443 7.17017 19.8602 7.08808C19.876 7.00598 19.9212 6.93245 19.9873 6.88118C20.1108 6.78606 20.2125 6.66561 20.2855 6.52793C20.3586 6.39024 20.4014 6.23852 20.411 6.08294C20.4206 5.92736 20.3968 5.77153 20.3411 5.62591C20.2855 5.4803 20.1994 5.34827 20.0885 5.2387L18.761 3.91122C18.6514 3.80057 18.5195 3.71457 18.374 3.65896C18.2285 3.60334 18.0728 3.5794 17.9173 3.58872C17.7619 3.59932 17.6104 3.64252 17.4728 3.71553C17.3352 3.78854 17.2145 3.88972 17.1185 4.01247C17.0673 4.07853 16.9937 4.12369 16.9116 4.13956C16.8296 4.15543 16.7445 4.14091 16.6723 4.09872C15.9278 3.6556 15.1233 3.32216 14.2836 3.10872C14.203 3.08739 14.1329 3.03772 14.0861 2.96883C14.0392 2.89994 14.0188 2.81646 14.0286 2.73372C14.0472 2.57954 14.0331 2.42315 13.9871 2.27482C13.941 2.12649 13.8641 1.98958 13.7614 1.87307C13.6587 1.75656 13.5325 1.66309 13.3912 1.59879C13.2498 1.5345 13.0964 1.50083 12.9411 1.5H11.0586C10.9033 1.50083 10.7499 1.5345 10.6085 1.5988C10.4672 1.66309 10.341 1.75656 10.2383 1.87307C10.1356 1.98958 10.0587 2.12649 10.0127 2.27482C9.96661 2.42315 9.95246 2.57954 9.97113 2.73372C9.9809 2.81646 9.96049 2.89994 9.91364 2.96883C9.8668 3.03772 9.79666 3.08739 9.71613 3.10872C8.87644 3.32216 8.07192 3.6556 7.32742 4.09872C7.25546 4.14181 7.17014 4.15683 7.0878 4.14092C7.00546 4.125 6.93188 4.07927 6.88117 4.01247C6.78604 3.88899 6.66559 3.78729 6.52791 3.71421C6.39023 3.64112 6.2385 3.59835 6.08292 3.58876C5.92734 3.57917 5.77151 3.60298 5.6259 3.6586C5.48028 3.71422 5.34826 3.80036 5.23868 3.91122L3.91121 5.2387C3.80208 5.34919 3.71749 5.48147 3.66296 5.62688C3.60843 5.77229 3.58518 5.92756 3.59473 6.08257C3.60429 6.23757 3.64643 6.38882 3.71841 6.52643C3.79039 6.66404 3.89059 6.78492 4.01246 6.88118C4.07851 6.93245 4.12368 7.00598 4.13955 7.08808C4.15541 7.17017 4.1409 7.25524 4.09871 7.32743C3.65558 8.07193 3.32215 8.87645 3.10871 9.71615C3.08852 9.79734 3.03911 9.86823 2.96992 9.91528C2.90074 9.96233 2.81664 9.98221 2.73371 9.97115C2.57926 9.95096 2.42228 9.96404 2.27331 10.0095C2.12433 10.055 1.9868 10.1318 1.86995 10.2348C1.75311 10.3378 1.65965 10.4646 1.59584 10.6067C1.53203 10.7488 1.49936 10.9029 1.50001 11.0586V12.9411C1.49936 13.0969 1.53204 13.251 1.59585 13.3931C1.65966 13.5352 1.75312 13.662 1.86997 13.765C1.98682 13.868 2.12435 13.9448 2.27333 13.9903C2.42231 14.0357 2.57929 14.0488 2.73374 14.0286C2.81647 14.0188 2.89995 14.0393 2.96885 14.0861C3.03774 14.1329 3.08741 14.2031 3.10874 14.2836C3.32217 15.1233 3.65561 15.9278 4.09874 16.6723C4.14093 16.7445 4.15544 16.8296 4.13957 16.9117C4.12371 16.9938 4.07854 17.0673 4.01249 17.1186C3.89023 17.2146 3.78968 17.3354 3.71744 17.473C3.6452 17.6106 3.60291 17.762 3.59335 17.9171C3.58378 18.0723 3.60716 18.2277 3.66195 18.3731C3.71674 18.5186 3.8017 18.6508 3.91124 18.7611L4.19999 19.0498C4.32585 18.3265 4.64551 17.6509 5.12492 17.0949C5.60434 16.5389 6.22556 16.1233 6.92246 15.8924L7.89743 15.5661C7.21271 14.779 6.76889 13.8115 6.61892 12.7791C6.46895 11.7466 6.61916 10.6928 7.05164 9.74342C7.48411 8.794 8.18059 7.98905 9.05797 7.42459C9.93536 6.86013 10.9566 6.55999 11.9999 6.55999C13.0432 6.55999 14.0644 6.86013 14.9418 7.42459C15.8192 7.98905 16.5157 8.794 16.9481 9.74342C17.3806 10.6928 17.5308 11.7466 17.3808 12.7791C17.2309 13.8115 16.7871 14.779 16.1023 15.5661L17.0773 15.8924C17.7742 16.1233 18.3954 16.5389 18.8748 17.0949C19.3543 17.6509 19.6739 18.3265 19.7998 19.0498L20.0885 18.7611C20.1947 18.6527 20.2775 18.5237 20.3318 18.3821C20.3861 18.2404 20.4106 18.089 20.4039 17.9375C20.3973 17.7859 20.3595 17.6373 20.293 17.501C20.2264 17.3646 20.1326 17.2434 20.0173 17.1448C19.9446 17.0975 19.8916 17.0254 19.8682 16.942C19.8447 16.8585 19.8524 16.7693 19.8898 16.6911C20.3373 15.9408 20.6745 15.13 20.891 14.2836C20.9124 14.2031 20.962 14.1329 21.0309 14.0861C21.0998 14.0392 21.1833 14.0188 21.266 14.0286C21.4202 14.0473 21.5766 14.0331 21.7249 13.9871C21.8733 13.941 22.0102 13.8641 22.1267 13.7614C22.2432 13.6587 22.3367 13.5326 22.401 13.3912C22.4653 13.2498 22.4989 13.0964 22.4998 12.9411V11.0586C22.4986 10.9034 22.4647 10.7502 22.4003 10.609C22.3359 10.4678 22.2424 10.3417 22.126 10.2391C22.0095 10.1365 21.8728 10.0596 21.7246 10.0134C21.5764 9.96721 21.4201 9.95282 21.266 9.97115Z" fill="#B72B2B"/>
<path d="M12.0002 16.02C14.1459 16.02 15.8852 14.2806 15.8852 12.135C15.8852 9.98937 14.1459 8.25 12.0002 8.25C9.85461 8.25 8.11523 9.98937 8.11523 12.135C8.11523 14.2806 9.85461 16.02 12.0002 16.02Z" fill="#B72B2B"/>
</svg>
