<svg width="24" height="24" viewBox="0 0 24 24" fill="none" xmlns="http://www.w3.org/2000/svg">
<path fill-rule="evenodd" clip-rule="evenodd" d="M3.15512 6.61506C2.95388 6.77584 2.6604 6.74307 2.49962 6.54179C2.33884 6.34056 2.3716 6.04707 2.57284 5.88629L6.80045 2.50524C6.95049 2.38538 7.15177 2.3731 7.3111 2.45799L7.31129 2.45762L12.1177 5.02735L16.7581 1.23849L15.9746 1.16645C15.7177 1.1432 15.5284 0.916088 15.5516 0.65926C15.5749 0.402385 15.802 0.213057 16.0588 0.236307L18.0124 0.415978C18.2693 0.439228 18.4586 0.666338 18.4354 0.923166C18.4327 0.952697 18.4273 0.981338 18.4195 1.00885L18.4207 1.00918L17.8703 2.92421C17.7995 3.17298 17.5404 3.31726 17.2917 3.24648C17.0429 3.1757 16.8986 2.91662 16.9694 2.66785L17.118 2.1511L12.4671 5.94854L12.4669 5.94835C12.3255 6.06324 12.1234 6.08912 11.9525 5.99799L7.14235 3.42624L3.15512 6.61506ZM1.61621 10.9477H4.33341C4.46251 10.9477 4.56779 11.0529 4.56779 11.182V19.0629C4.56779 19.192 4.46251 19.2973 4.33341 19.2973H1.61621C1.48712 19.2973 1.38184 19.192 1.38184 19.0629V11.182C1.38184 11.0529 1.48712 10.9477 1.61621 10.9477ZM6.51254 6.99034H9.22974C9.35884 6.99034 9.46412 7.09562 9.46412 7.22471V19.0629C9.46412 19.1919 9.35884 19.2972 9.22974 19.2972H6.51254C6.38345 19.2972 6.27816 19.1919 6.27816 19.0629V7.22471C6.27816 7.09562 6.38345 6.99034 6.51254 6.99034ZM11.7566 19.2972H11.6432C11.3851 19.2972 11.1745 19.0867 11.1745 18.8285V9.37065C11.1745 9.11246 11.3851 8.9019 11.6432 8.9019H13.8917C14.1499 8.9019 14.3604 9.11246 14.3604 9.37065V13.8445C12.7758 14.9092 11.7331 16.7181 11.7331 18.7706C11.7331 18.9481 11.7413 19.1237 11.7566 19.2972ZM19.2567 13.0566V5.32951C19.2567 5.07132 19.0462 4.86076 18.788 4.86076H16.5395C16.2813 4.86076 16.0708 5.07132 16.0708 5.32951V13.0566C16.5777 12.9156 17.1119 12.8399 17.6637 12.8399C18.2156 12.8399 18.7498 12.9156 19.2567 13.0566ZM18.1325 13.7995C20.516 14.0214 22.413 15.9184 22.6349 18.3019H18.1325V13.7995ZM22.635 19.2394C22.5393 20.2664 22.1329 21.2031 21.5104 21.9544L18.7954 19.2394H22.635ZM20.8475 22.6173L17.1951 18.9648V13.7995C14.6573 14.0358 12.6706 16.1711 12.6706 18.7707C12.6706 21.5284 14.9061 23.7639 17.6638 23.7639C18.8739 23.7639 19.9833 23.3334 20.8475 22.6173Z" fill="#674EAD"/>
</svg>
