<svg width="24" height="24" viewBox="0 0 24 24" fill="none" xmlns="http://www.w3.org/2000/svg">
<path d="M3 12.75H1.5V21.75H3C3.41423 21.75 3.75 21.4142 3.75 21V13.5C3.75 13.0858 3.41423 12.75 3 12.75Z" fill="#A42297"/>
<path d="M6.75 12.7511V3.75C6.75 2.92273 7.42273 2.25 8.25 2.25H15.75C16.5773 2.25 17.25 2.92273 17.25 3.75V14.2818L18 13.8785V3.75C18 2.50928 16.9907 1.5 15.75 1.5H8.25C7.00928 1.5 6 2.50928 6 3.75V12.7511H6.75Z" fill="#A42297"/>
<path d="M21.6405 13.7531C21.0989 13.4295 20.4426 13.4155 19.8882 13.7151L14.9768 16.3553C14.8621 17.2801 14.0803 18.0006 13.125 18.0006H10.11C9.90271 18.0006 9.73499 17.8329 9.73499 17.6256C9.73499 17.4184 9.90271 17.2507 10.11 17.2507H13.125C13.7454 17.2507 14.25 16.7461 14.25 16.1259C14.25 15.5174 13.7635 15.0231 13.1594 15.0045C12.9349 15.0019 9.31055 15.001 9.31055 15.001L8.03027 13.7209C7.88965 13.5803 7.69885 13.5012 7.5 13.5012H4.5V21.0017H5.82422L8.25 21.7501C9.25781 22.0741 10.3358 22.5 11.5302 22.5C12.6101 22.5 13.6743 22.1419 14.5928 21.4381L21.7354 16.711C22.214 16.3829 22.5 15.841 22.5 15.2624C22.5 14.6378 22.1788 14.0739 21.6405 13.7531Z" fill="#A42297"/>
<path d="M9.62146 14.2511C10.5051 14.2515 12.9833 14.2522 13.1678 14.2544C13.994 14.28 14.6697 14.8096 14.9081 15.5409L16.5 14.685V3.75C16.5 3.33577 16.1642 3 15.75 3H13.5C13.5 3.82841 12.8284 4.5 12 4.5C11.1716 4.5 10.5 3.82841 10.5 3H8.25C7.83577 3 7.5 3.33577 7.5 3.75V12.7511C7.90063 12.7511 8.2771 12.9071 8.56055 13.1906L9.62146 14.2511ZM13.6099 8.89059C13.4634 8.74411 13.4634 8.50681 13.6099 8.36032C13.7563 8.21384 13.9937 8.21384 14.1401 8.36032L15.6401 9.86032C15.7866 10.0068 15.7866 10.2441 15.6401 10.3906L14.1401 11.8906C14.0669 11.9638 13.9709 12.0005 13.875 12.0005C13.7791 12.0005 13.6831 11.9638 13.6099 11.8906C13.4634 11.7441 13.4634 11.5068 13.6099 11.3603L14.8447 10.1255L13.6099 8.89059ZM11.2614 11.5351L12.0114 8.5351C12.0612 8.33368 12.2652 8.20917 12.4659 8.26227C12.6669 8.31244 12.7892 8.51605 12.7387 8.71674L11.9887 11.7167C11.9462 11.8874 11.7935 12.0009 11.6254 12.0009C11.5954 12.0009 11.5646 11.9973 11.5342 11.9896C11.3332 11.9394 11.2109 11.7358 11.2614 11.5351ZM8.35986 9.86032L9.85986 8.36032C10.0063 8.21384 10.2437 8.21384 10.3901 8.36032C10.5366 8.50681 10.5366 8.74411 10.3901 8.89059L9.15527 10.1255L10.3901 11.3603C10.5366 11.5068 10.5366 11.7441 10.3901 11.8906C10.3169 11.9638 10.2209 12.0005 10.125 12.0005C10.0291 12.0005 9.93311 11.9638 9.85986 11.8906L8.35986 10.3906C8.21338 10.2441 8.21338 10.0068 8.35986 9.86032Z" fill="#A42297"/>
</svg>
