<svg width="24" height="24" viewBox="0 0 24 24" fill="none" xmlns="http://www.w3.org/2000/svg">
<g clip-path="url(#clip0_8938_49873)">
<path d="M4.9668 24H19.0293C20.1925 24 21.1387 23.0538 21.1387 21.8906V7.03125H16.2168C15.0536 7.03125 14.1074 6.08503 14.1074 4.92188V0H4.9668C3.80364 0 2.85742 0.946219 2.85742 2.10938V21.8906C2.85742 23.0538 3.80364 24 4.9668 24ZM7.7793 9.89062H16.2168C16.6054 9.89062 16.9199 10.2051 16.9199 10.5938C16.9199 10.9824 16.6054 11.2969 16.2168 11.2969H7.7793C7.39066 11.2969 7.07617 10.9824 7.07617 10.5938C7.07617 10.2051 7.39066 9.89062 7.7793 9.89062ZM7.7793 12.7031H16.2168C16.6054 12.7031 16.9199 13.0176 16.9199 13.4062C16.9199 13.7949 16.6054 14.1094 16.2168 14.1094H7.7793C7.39066 14.1094 7.07617 13.7949 7.07617 13.4062C7.07617 13.0176 7.39066 12.7031 7.7793 12.7031ZM7.7793 15.5156H16.2168C16.6054 15.5156 16.9199 15.8301 16.9199 16.2188C16.9199 16.6074 16.6054 16.9219 16.2168 16.9219H7.7793C7.39066 16.9219 7.07617 16.6074 7.07617 16.2188C7.07617 15.8301 7.39066 15.5156 7.7793 15.5156ZM7.7793 18.3281H13.4043C13.7929 18.3281 14.1074 18.6426 14.1074 19.0312C14.1074 19.4199 13.7929 19.7344 13.4043 19.7344H7.7793C7.39066 19.7344 7.07617 19.4199 7.07617 19.0312C7.07617 18.6426 7.39066 18.3281 7.7793 18.3281Z" fill="#946335"/>
<path d="M16.2188 5.62708H20.7286L15.5156 0.414062V4.92395C15.5156 5.31189 15.8308 5.62708 16.2188 5.62708Z" fill="#946335"/>
</g>
<defs>
<clipPath id="clip0_8938_49873">
<rect width="24" height="24" fill="white"/>
</clipPath>
</defs>
</svg>
