<svg width="24" height="24" viewBox="0 0 24 24" fill="none" xmlns="http://www.w3.org/2000/svg">
<g clip-path="url(#clip0_8938_49916)">
<path d="M22.1392 1.85129C19.6708 -0.617098 15.655 -0.617098 13.1866 1.85129L9.50832 5.52953C8.86646 6.17139 8.34638 6.99029 8.01118 7.99009C8.00555 7.99196 8.00012 7.99482 7.99449 7.9967C7.23212 10.2902 7.81032 12.7841 9.50832 14.4821C10.0156 14.9895 10.6126 15.4072 11.2591 15.7156L11.4978 15.4769C12.3234 14.6512 12.3234 13.3183 11.4978 12.4926C10.1251 11.1199 10.1251 8.89164 11.4978 7.51895L15.176 3.84071C16.5488 2.46798 18.777 2.46798 20.1497 3.84071C21.5224 5.21345 21.5224 7.44165 20.1497 8.81439L17.3568 11.6073C17.7292 12.7588 17.8081 13.9781 17.6279 15.165C17.922 14.9599 18.205 14.738 18.4609 14.4821L22.1392 10.8039C24.6076 8.33551 24.6076 4.31964 22.1392 1.85129Z" fill="#362BB7"/>
<path d="M14.4845 9.50483C13.9772 8.9975 13.3803 8.5797 12.7239 8.28125L12.495 8.51009C11.6694 9.3357 11.6694 10.6686 12.495 11.4943C13.8678 12.8671 13.8678 15.0953 12.495 16.468C11.3331 17.63 9.91549 19.0478 8.80764 20.1556C7.43491 21.5284 5.20671 21.5284 3.83397 20.1556C2.46124 18.7829 2.46124 16.5547 3.83397 15.182L6.63602 12.3797C6.2636 11.2282 6.18475 10.0088 6.36499 8.82195C6.0708 9.02708 5.78777 9.24894 5.53183 9.50483L1.84446 13.1924C-0.623934 15.6608 -0.623934 19.6767 1.84446 22.1451C4.31285 24.6135 8.32868 24.6135 10.7971 22.1451L14.4845 18.4575C15.1263 17.8156 15.6464 16.9967 15.9816 15.9969C15.9873 15.995 15.9927 15.9922 15.9983 15.9903C16.7607 13.6968 16.1825 11.2028 14.4845 9.50483Z" fill="#362BB7"/>
<path d="M20.4584 19.4509L19.4636 18.4562C19.1887 18.1813 18.7438 18.1813 18.4689 18.4562C18.194 18.7311 18.194 19.1761 18.4689 19.4509L19.4636 20.4457C19.7385 20.7206 20.1835 20.7206 20.4584 20.4457C20.7332 20.1707 20.7332 19.7258 20.4584 19.4509Z" fill="#362BB7"/>
<path d="M5.5375 4.53686L4.54272 3.54213C4.2678 3.26721 3.82286 3.26721 3.54799 3.54213C3.27307 3.81705 3.27307 4.26199 3.54799 4.53686L4.54272 5.5316C4.81764 5.80652 5.26258 5.80652 5.5375 5.5316C5.81243 5.25668 5.81243 4.81174 5.5375 4.53686Z" fill="#362BB7"/>
<path d="M23.0543 14.2244L21.6952 13.8601C21.3198 13.7595 20.9341 13.982 20.8336 14.3575C20.733 14.7353 20.958 15.1193 21.331 15.2192L22.69 15.5835C23.0655 15.684 23.4511 15.4615 23.5517 15.0861C23.6512 14.7106 23.4297 14.323 23.0543 14.2244Z" fill="#362BB7"/>
<path d="M2.66758 8.76347L1.30853 8.39916C0.933064 8.29861 0.547424 8.52108 0.446877 8.89655C0.346236 9.27422 0.571283 9.65836 0.944267 9.7582L2.30331 10.1225C2.67878 10.2231 3.06442 10.0006 3.16497 9.62513C3.265 9.24919 3.0416 8.86153 2.66758 8.76347Z" fill="#362BB7"/>
<path d="M15.5873 22.6854L15.223 21.3263C15.122 20.9494 14.7369 20.7284 14.3614 20.8289C13.9859 20.9295 13.7635 21.3151 13.864 21.6906L14.2283 23.0496C14.3282 23.4226 14.7123 23.6476 15.09 23.547C15.4654 23.4465 15.6879 23.0608 15.5873 22.6854Z" fill="#362BB7"/>
<path d="M10.1323 2.30223L9.76797 0.943183C9.66789 0.566261 9.28178 0.34623 8.90631 0.445792C8.53084 0.546339 8.30838 0.93198 8.40892 1.30745L8.77323 2.6665C8.80623 2.78987 8.87041 2.89675 8.95488 2.98126C9.12681 3.1532 9.38327 3.23092 9.63484 3.16389C10.0104 3.06339 10.2328 2.6777 10.1323 2.30223Z" fill="#362BB7"/>
</g>
<defs>
<clipPath id="clip0_8938_49916">
<rect width="24" height="24" fill="white"/>
</clipPath>
</defs>
</svg>
