<svg width="24" height="24" viewBox="0 0 24 24" fill="none" xmlns="http://www.w3.org/2000/svg">
<g clip-path="url(#clip0_8938_49878)">
<path d="M23.9995 19.8645C23.9995 22.1499 22.1469 24.0024 19.8616 24.0024C17.5762 24.0024 15.7236 22.1499 15.7236 19.8645C15.7236 17.5791 17.5762 15.7266 19.8616 15.7266C22.1469 15.7266 23.9995 17.5791 23.9995 19.8645Z" fill="#FF5023"/>
<path d="M4.43013 9.6367C4.26849 9.47527 4.00664 9.47527 3.845 9.6367L1.91808 11.5638C1.76109 11.7261 1.76331 11.9843 1.92293 12.1439C2.08254 12.3035 2.34076 12.3057 2.503 12.1488L3.72377 10.9282V16.1362C3.72377 16.3647 3.90905 16.55 4.13757 16.55C4.36608 16.55 4.55136 16.3647 4.55136 16.1362V10.9282L5.77213 12.1488C5.93437 12.3057 6.19259 12.3035 6.35221 12.1439C6.51183 11.9843 6.51405 11.7261 6.35706 11.5638L4.43013 9.6367Z" fill="#FF5023"/>
<path d="M22.0807 11.846C21.9193 11.6843 21.6572 11.6843 21.4958 11.846L20.275 13.0665V7.03098C20.275 6.80246 20.0897 6.61719 19.8612 6.61719C19.6327 6.61719 19.4474 6.80246 19.4474 7.03098V13.0665L18.2266 11.846C18.0644 11.689 17.8062 11.6912 17.6466 11.8508C17.4869 12.0104 17.4847 12.2687 17.6417 12.4309L19.5686 14.358C19.7303 14.5195 19.9921 14.5195 20.1538 14.358L22.0807 12.4309C22.2423 12.2695 22.2423 12.0074 22.0807 11.846Z" fill="#FF5023"/>
<path d="M12.0199 1.91547C11.916 1.80778 11.7623 1.76474 11.6176 1.80252C11.4729 1.84031 11.3598 1.95345 11.322 2.09812C11.2842 2.24279 11.3272 2.39654 11.4349 2.5004L12.6555 3.72117H8.27512C8.04661 3.72117 7.86133 3.90644 7.86133 4.13496C7.86133 4.36347 8.04661 4.54875 8.27512 4.54875H12.6555L11.4349 5.76952C11.3272 5.87337 11.2842 6.02713 11.322 6.1718C11.3598 6.31646 11.4729 6.42961 11.6176 6.46739C11.7623 6.50518 11.916 6.46214 12.0199 6.35445L13.947 4.42752C14.1084 4.26589 14.1084 4.00403 13.947 3.84239L12.0199 1.91547Z" fill="#FF5023"/>
<path d="M8.27586 4.13793C8.27586 6.42329 6.42329 8.27586 4.13793 8.27586C1.85257 8.27586 0 6.42329 0 4.13793C0 1.85257 1.85257 0 4.13793 0C6.42329 0 8.27586 1.85257 8.27586 4.13793Z" fill="#FF5023"/>
<path d="M16.1371 4.77813L19.3385 7.39263C19.6432 7.64135 20.0809 7.64135 20.3855 7.39263L23.5854 4.77813C23.7781 4.62094 23.8899 4.38556 23.8899 4.13684C23.8899 3.88812 23.7781 3.65253 23.5854 3.49554L20.3847 0.881853C20.08 0.633132 19.6424 0.633132 19.3377 0.881853L16.1371 3.49635C15.9447 3.65354 15.833 3.88872 15.833 4.13724C15.833 4.38576 15.9447 4.62094 16.1371 4.77813Z" fill="#FF5023"/>
<path d="M0 16.5541V23.1748C0 23.6319 0.370555 24.0024 0.827586 24.0024H7.44828C7.90531 24.0024 8.27586 23.6319 8.27586 23.1748V16.5541C8.27586 16.0971 7.90531 15.7266 7.44828 15.7266H0.827586C0.370555 15.7266 0 16.0971 0 16.5541Z" fill="#FF5023"/>
</g>
<defs>
<clipPath id="clip0_8938_49878">
<rect width="24" height="24" fill="white"/>
</clipPath>
</defs>
</svg>
